<?xml version="1.0" encoding="utf-8" standalone="no"?>
<!DOCTYPE svg PUBLIC "-//W3C//DTD SVG 1.1//EN"
  "http://www.w3.org/Graphics/SVG/1.1/DTD/svg11.dtd">
<svg xmlns:xlink="http://www.w3.org/1999/xlink" width="460.8pt" height="345.6pt" viewBox="0 0 460.8 345.6" xmlns="http://www.w3.org/2000/svg" version="1.1">
 <metadata>
  <rdf:RDF xmlns:dc="http://purl.org/dc/elements/1.1/" xmlns:cc="http://creativecommons.org/ns#" xmlns:rdf="http://www.w3.org/1999/02/22-rdf-syntax-ns#">
   <cc:Work>
    <dc:type rdf:resource="http://purl.org/dc/dcmitype/StillImage"/>
    <dc:date>2022-05-31T16:33:32.865916</dc:date>
    <dc:format>image/svg+xml</dc:format>
    <dc:creator>
     <cc:Agent>
      <dc:title>Matplotlib v3.5.0, https://matplotlib.org/</dc:title>
     </cc:Agent>
    </dc:creator>
   </cc:Work>
  </rdf:RDF>
 </metadata>
 <defs>
  <style type="text/css">*{stroke-linejoin: round; stroke-linecap: butt}</style>
 </defs>
 <g id="figure_1">
  <g id="patch_1">
   <path d="M 0 345.6 
L 460.8 345.6 
L 460.8 0 
L 0 0 
z
" style="fill: #ffffff"/>
  </g>
  <g id="axes_1">
   <g id="patch_2">
    <path d="M 57.6 307.584 
L 414.72 307.584 
L 414.72 41.472 
L 57.6 41.472 
z
" style="fill: #ffffff"/>
   </g>
   <g id="matplotlib.axis_1">
    <g id="xtick_1">
     <g id="line2d_1">
      <path d="M 73.832727 307.584 
L 73.832727 41.472 
" clip-path="url(#pac2fef2aeb)" style="fill: none; stroke: #b0b0b0; stroke-width: 0.8; stroke-linecap: square"/>
     </g>
     <g id="line2d_2">
      <defs>
       <path id="mf7e87c2d6f" d="M 0 0 
L 0 3.5 
" style="stroke: #000000; stroke-width: 0.8"/>
      </defs>
      <g>
       <use xlink:href="#mf7e87c2d6f" x="73.832727" y="307.584" style="stroke: #000000; stroke-width: 0.8"/>
      </g>
     </g>
     <g id="text_1">
      <!-- 0.0 -->
      <g transform="translate(65.881165 322.182437)scale(0.1 -0.1)">
       <defs>
        <path id="DejaVuSans-30" d="M 2034 4250 
Q 1547 4250 1301 3770 
Q 1056 3291 1056 2328 
Q 1056 1369 1301 889 
Q 1547 409 2034 409 
Q 2525 409 2770 889 
Q 3016 1369 3016 2328 
Q 3016 3291 2770 3770 
Q 2525 4250 2034 4250 
z
M 2034 4750 
Q 2819 4750 3233 4129 
Q 3647 3509 3647 2328 
Q 3647 1150 3233 529 
Q 2819 -91 2034 -91 
Q 1250 -91 836 529 
Q 422 1150 422 2328 
Q 422 3509 836 4129 
Q 1250 4750 2034 4750 
z
" transform="scale(0.015625)"/>
        <path id="DejaVuSans-2e" d="M 684 794 
L 1344 794 
L 1344 0 
L 684 0 
L 684 794 
z
" transform="scale(0.015625)"/>
       </defs>
       <use xlink:href="#DejaVuSans-30"/>
       <use xlink:href="#DejaVuSans-2e" x="63.623047"/>
       <use xlink:href="#DejaVuSans-30" x="95.410156"/>
      </g>
     </g>
    </g>
    <g id="xtick_2">
     <g id="line2d_3">
      <path d="M 137.490481 307.584 
L 137.490481 41.472 
" clip-path="url(#pac2fef2aeb)" style="fill: none; stroke: #b0b0b0; stroke-width: 0.8; stroke-linecap: square"/>
     </g>
     <g id="line2d_4">
      <g>
       <use xlink:href="#mf7e87c2d6f" x="137.490481" y="307.584" style="stroke: #000000; stroke-width: 0.8"/>
      </g>
     </g>
     <g id="text_2">
      <!-- 0.5 -->
      <g transform="translate(129.538919 322.182437)scale(0.1 -0.1)">
       <defs>
        <path id="DejaVuSans-35" d="M 691 4666 
L 3169 4666 
L 3169 4134 
L 1269 4134 
L 1269 2991 
Q 1406 3038 1543 3061 
Q 1681 3084 1819 3084 
Q 2600 3084 3056 2656 
Q 3513 2228 3513 1497 
Q 3513 744 3044 326 
Q 2575 -91 1722 -91 
Q 1428 -91 1123 -41 
Q 819 9 494 109 
L 494 744 
Q 775 591 1075 516 
Q 1375 441 1709 441 
Q 2250 441 2565 725 
Q 2881 1009 2881 1497 
Q 2881 1984 2565 2268 
Q 2250 2553 1709 2553 
Q 1456 2553 1204 2497 
Q 953 2441 691 2322 
L 691 4666 
z
" transform="scale(0.015625)"/>
       </defs>
       <use xlink:href="#DejaVuSans-30"/>
       <use xlink:href="#DejaVuSans-2e" x="63.623047"/>
       <use xlink:href="#DejaVuSans-35" x="95.410156"/>
      </g>
     </g>
    </g>
    <g id="xtick_3">
     <g id="line2d_5">
      <path d="M 201.148235 307.584 
L 201.148235 41.472 
" clip-path="url(#pac2fef2aeb)" style="fill: none; stroke: #b0b0b0; stroke-width: 0.8; stroke-linecap: square"/>
     </g>
     <g id="line2d_6">
      <g>
       <use xlink:href="#mf7e87c2d6f" x="201.148235" y="307.584" style="stroke: #000000; stroke-width: 0.8"/>
      </g>
     </g>
     <g id="text_3">
      <!-- 1.0 -->
      <g transform="translate(193.196673 322.182437)scale(0.1 -0.1)">
       <defs>
        <path id="DejaVuSans-31" d="M 794 531 
L 1825 531 
L 1825 4091 
L 703 3866 
L 703 4441 
L 1819 4666 
L 2450 4666 
L 2450 531 
L 3481 531 
L 3481 0 
L 794 0 
L 794 531 
z
" transform="scale(0.015625)"/>
       </defs>
       <use xlink:href="#DejaVuSans-31"/>
       <use xlink:href="#DejaVuSans-2e" x="63.623047"/>
       <use xlink:href="#DejaVuSans-30" x="95.410156"/>
      </g>
     </g>
    </g>
    <g id="xtick_4">
     <g id="line2d_7">
      <path d="M 264.805989 307.584 
L 264.805989 41.472 
" clip-path="url(#pac2fef2aeb)" style="fill: none; stroke: #b0b0b0; stroke-width: 0.8; stroke-linecap: square"/>
     </g>
     <g id="line2d_8">
      <g>
       <use xlink:href="#mf7e87c2d6f" x="264.805989" y="307.584" style="stroke: #000000; stroke-width: 0.8"/>
      </g>
     </g>
     <g id="text_4">
      <!-- 1.5 -->
      <g transform="translate(256.854427 322.182437)scale(0.1 -0.1)">
       <use xlink:href="#DejaVuSans-31"/>
       <use xlink:href="#DejaVuSans-2e" x="63.623047"/>
       <use xlink:href="#DejaVuSans-35" x="95.410156"/>
      </g>
     </g>
    </g>
    <g id="xtick_5">
     <g id="line2d_9">
      <path d="M 328.463743 307.584 
L 328.463743 41.472 
" clip-path="url(#pac2fef2aeb)" style="fill: none; stroke: #b0b0b0; stroke-width: 0.8; stroke-linecap: square"/>
     </g>
     <g id="line2d_10">
      <g>
       <use xlink:href="#mf7e87c2d6f" x="328.463743" y="307.584" style="stroke: #000000; stroke-width: 0.8"/>
      </g>
     </g>
     <g id="text_5">
      <!-- 2.0 -->
      <g transform="translate(320.512181 322.182437)scale(0.1 -0.1)">
       <defs>
        <path id="DejaVuSans-32" d="M 1228 531 
L 3431 531 
L 3431 0 
L 469 0 
L 469 531 
Q 828 903 1448 1529 
Q 2069 2156 2228 2338 
Q 2531 2678 2651 2914 
Q 2772 3150 2772 3378 
Q 2772 3750 2511 3984 
Q 2250 4219 1831 4219 
Q 1534 4219 1204 4116 
Q 875 4013 500 3803 
L 500 4441 
Q 881 4594 1212 4672 
Q 1544 4750 1819 4750 
Q 2544 4750 2975 4387 
Q 3406 4025 3406 3419 
Q 3406 3131 3298 2873 
Q 3191 2616 2906 2266 
Q 2828 2175 2409 1742 
Q 1991 1309 1228 531 
z
" transform="scale(0.015625)"/>
       </defs>
       <use xlink:href="#DejaVuSans-32"/>
       <use xlink:href="#DejaVuSans-2e" x="63.623047"/>
       <use xlink:href="#DejaVuSans-30" x="95.410156"/>
      </g>
     </g>
    </g>
    <g id="xtick_6">
     <g id="line2d_11">
      <path d="M 392.121497 307.584 
L 392.121497 41.472 
" clip-path="url(#pac2fef2aeb)" style="fill: none; stroke: #b0b0b0; stroke-width: 0.8; stroke-linecap: square"/>
     </g>
     <g id="line2d_12">
      <g>
       <use xlink:href="#mf7e87c2d6f" x="392.121497" y="307.584" style="stroke: #000000; stroke-width: 0.8"/>
      </g>
     </g>
     <g id="text_6">
      <!-- 2.5 -->
      <g transform="translate(384.169935 322.182437)scale(0.1 -0.1)">
       <use xlink:href="#DejaVuSans-32"/>
       <use xlink:href="#DejaVuSans-2e" x="63.623047"/>
       <use xlink:href="#DejaVuSans-35" x="95.410156"/>
      </g>
     </g>
    </g>
    <g id="text_7">
     <!-- x -->
     <g transform="translate(233.200625 335.860562)scale(0.1 -0.1)">
      <defs>
       <path id="DejaVuSans-78" d="M 3513 3500 
L 2247 1797 
L 3578 0 
L 2900 0 
L 1881 1375 
L 863 0 
L 184 0 
L 1544 1831 
L 300 3500 
L 978 3500 
L 1906 2253 
L 2834 3500 
L 3513 3500 
z
" transform="scale(0.015625)"/>
      </defs>
      <use xlink:href="#DejaVuSans-78"/>
     </g>
    </g>
   </g>
   <g id="matplotlib.axis_2">
    <g id="ytick_1">
     <g id="line2d_13">
      <path d="M 57.6 299.268 
L 414.72 299.268 
" clip-path="url(#pac2fef2aeb)" style="fill: none; stroke: #b0b0b0; stroke-width: 0.8; stroke-linecap: square"/>
     </g>
     <g id="line2d_14">
      <defs>
       <path id="m315909f1f5" d="M 0 0 
L -3.5 0 
" style="stroke: #000000; stroke-width: 0.8"/>
      </defs>
      <g>
       <use xlink:href="#m315909f1f5" x="57.6" y="299.268" style="stroke: #000000; stroke-width: 0.8"/>
      </g>
     </g>
     <g id="text_8">
      <!-- 0.0 -->
      <g transform="translate(34.696875 303.067219)scale(0.1 -0.1)">
       <use xlink:href="#DejaVuSans-30"/>
       <use xlink:href="#DejaVuSans-2e" x="63.623047"/>
       <use xlink:href="#DejaVuSans-30" x="95.410156"/>
      </g>
     </g>
    </g>
    <g id="ytick_2">
     <g id="line2d_15">
      <path d="M 57.6 266.004 
L 414.72 266.004 
" clip-path="url(#pac2fef2aeb)" style="fill: none; stroke: #b0b0b0; stroke-width: 0.8; stroke-linecap: square"/>
     </g>
     <g id="line2d_16">
      <g>
       <use xlink:href="#m315909f1f5" x="57.6" y="266.004" style="stroke: #000000; stroke-width: 0.8"/>
      </g>
     </g>
     <g id="text_9">
      <!-- 0.2 -->
      <g transform="translate(34.696875 269.803219)scale(0.1 -0.1)">
       <use xlink:href="#DejaVuSans-30"/>
       <use xlink:href="#DejaVuSans-2e" x="63.623047"/>
       <use xlink:href="#DejaVuSans-32" x="95.410156"/>
      </g>
     </g>
    </g>
    <g id="ytick_3">
     <g id="line2d_17">
      <path d="M 57.6 232.74 
L 414.72 232.74 
" clip-path="url(#pac2fef2aeb)" style="fill: none; stroke: #b0b0b0; stroke-width: 0.8; stroke-linecap: square"/>
     </g>
     <g id="line2d_18">
      <g>
       <use xlink:href="#m315909f1f5" x="57.6" y="232.74" style="stroke: #000000; stroke-width: 0.8"/>
      </g>
     </g>
     <g id="text_10">
      <!-- 0.4 -->
      <g transform="translate(34.696875 236.539219)scale(0.1 -0.1)">
       <defs>
        <path id="DejaVuSans-34" d="M 2419 4116 
L 825 1625 
L 2419 1625 
L 2419 4116 
z
M 2253 4666 
L 3047 4666 
L 3047 1625 
L 3713 1625 
L 3713 1100 
L 3047 1100 
L 3047 0 
L 2419 0 
L 2419 1100 
L 313 1100 
L 313 1709 
L 2253 4666 
z
" transform="scale(0.015625)"/>
       </defs>
       <use xlink:href="#DejaVuSans-30"/>
       <use xlink:href="#DejaVuSans-2e" x="63.623047"/>
       <use xlink:href="#DejaVuSans-34" x="95.410156"/>
      </g>
     </g>
    </g>
    <g id="ytick_4">
     <g id="line2d_19">
      <path d="M 57.6 199.476 
L 414.72 199.476 
" clip-path="url(#pac2fef2aeb)" style="fill: none; stroke: #b0b0b0; stroke-width: 0.8; stroke-linecap: square"/>
     </g>
     <g id="line2d_20">
      <g>
       <use xlink:href="#m315909f1f5" x="57.6" y="199.476" style="stroke: #000000; stroke-width: 0.8"/>
      </g>
     </g>
     <g id="text_11">
      <!-- 0.6 -->
      <g transform="translate(34.696875 203.275219)scale(0.1 -0.1)">
       <defs>
        <path id="DejaVuSans-36" d="M 2113 2584 
Q 1688 2584 1439 2293 
Q 1191 2003 1191 1497 
Q 1191 994 1439 701 
Q 1688 409 2113 409 
Q 2538 409 2786 701 
Q 3034 994 3034 1497 
Q 3034 2003 2786 2293 
Q 2538 2584 2113 2584 
z
M 3366 4563 
L 3366 3988 
Q 3128 4100 2886 4159 
Q 2644 4219 2406 4219 
Q 1781 4219 1451 3797 
Q 1122 3375 1075 2522 
Q 1259 2794 1537 2939 
Q 1816 3084 2150 3084 
Q 2853 3084 3261 2657 
Q 3669 2231 3669 1497 
Q 3669 778 3244 343 
Q 2819 -91 2113 -91 
Q 1303 -91 875 529 
Q 447 1150 447 2328 
Q 447 3434 972 4092 
Q 1497 4750 2381 4750 
Q 2619 4750 2861 4703 
Q 3103 4656 3366 4563 
z
" transform="scale(0.015625)"/>
       </defs>
       <use xlink:href="#DejaVuSans-30"/>
       <use xlink:href="#DejaVuSans-2e" x="63.623047"/>
       <use xlink:href="#DejaVuSans-36" x="95.410156"/>
      </g>
     </g>
    </g>
    <g id="ytick_5">
     <g id="line2d_21">
      <path d="M 57.6 166.212 
L 414.72 166.212 
" clip-path="url(#pac2fef2aeb)" style="fill: none; stroke: #b0b0b0; stroke-width: 0.8; stroke-linecap: square"/>
     </g>
     <g id="line2d_22">
      <g>
       <use xlink:href="#m315909f1f5" x="57.6" y="166.212" style="stroke: #000000; stroke-width: 0.8"/>
      </g>
     </g>
     <g id="text_12">
      <!-- 0.8 -->
      <g transform="translate(34.696875 170.011219)scale(0.1 -0.1)">
       <defs>
        <path id="DejaVuSans-38" d="M 2034 2216 
Q 1584 2216 1326 1975 
Q 1069 1734 1069 1313 
Q 1069 891 1326 650 
Q 1584 409 2034 409 
Q 2484 409 2743 651 
Q 3003 894 3003 1313 
Q 3003 1734 2745 1975 
Q 2488 2216 2034 2216 
z
M 1403 2484 
Q 997 2584 770 2862 
Q 544 3141 544 3541 
Q 544 4100 942 4425 
Q 1341 4750 2034 4750 
Q 2731 4750 3128 4425 
Q 3525 4100 3525 3541 
Q 3525 3141 3298 2862 
Q 3072 2584 2669 2484 
Q 3125 2378 3379 2068 
Q 3634 1759 3634 1313 
Q 3634 634 3220 271 
Q 2806 -91 2034 -91 
Q 1263 -91 848 271 
Q 434 634 434 1313 
Q 434 1759 690 2068 
Q 947 2378 1403 2484 
z
M 1172 3481 
Q 1172 3119 1398 2916 
Q 1625 2713 2034 2713 
Q 2441 2713 2670 2916 
Q 2900 3119 2900 3481 
Q 2900 3844 2670 4047 
Q 2441 4250 2034 4250 
Q 1625 4250 1398 4047 
Q 1172 3844 1172 3481 
z
" transform="scale(0.015625)"/>
       </defs>
       <use xlink:href="#DejaVuSans-30"/>
       <use xlink:href="#DejaVuSans-2e" x="63.623047"/>
       <use xlink:href="#DejaVuSans-38" x="95.410156"/>
      </g>
     </g>
    </g>
    <g id="ytick_6">
     <g id="line2d_23">
      <path d="M 57.6 132.948 
L 414.72 132.948 
" clip-path="url(#pac2fef2aeb)" style="fill: none; stroke: #b0b0b0; stroke-width: 0.8; stroke-linecap: square"/>
     </g>
     <g id="line2d_24">
      <g>
       <use xlink:href="#m315909f1f5" x="57.6" y="132.948" style="stroke: #000000; stroke-width: 0.8"/>
      </g>
     </g>
     <g id="text_13">
      <!-- 1.0 -->
      <g transform="translate(34.696875 136.747219)scale(0.1 -0.1)">
       <use xlink:href="#DejaVuSans-31"/>
       <use xlink:href="#DejaVuSans-2e" x="63.623047"/>
       <use xlink:href="#DejaVuSans-30" x="95.410156"/>
      </g>
     </g>
    </g>
    <g id="ytick_7">
     <g id="line2d_25">
      <path d="M 57.6 99.684 
L 414.72 99.684 
" clip-path="url(#pac2fef2aeb)" style="fill: none; stroke: #b0b0b0; stroke-width: 0.8; stroke-linecap: square"/>
     </g>
     <g id="line2d_26">
      <g>
       <use xlink:href="#m315909f1f5" x="57.6" y="99.684" style="stroke: #000000; stroke-width: 0.8"/>
      </g>
     </g>
     <g id="text_14">
      <!-- 1.2 -->
      <g transform="translate(34.696875 103.483219)scale(0.1 -0.1)">
       <use xlink:href="#DejaVuSans-31"/>
       <use xlink:href="#DejaVuSans-2e" x="63.623047"/>
       <use xlink:href="#DejaVuSans-32" x="95.410156"/>
      </g>
     </g>
    </g>
    <g id="ytick_8">
     <g id="line2d_27">
      <path d="M 57.6 66.42 
L 414.72 66.42 
" clip-path="url(#pac2fef2aeb)" style="fill: none; stroke: #b0b0b0; stroke-width: 0.8; stroke-linecap: square"/>
     </g>
     <g id="line2d_28">
      <g>
       <use xlink:href="#m315909f1f5" x="57.6" y="66.42" style="stroke: #000000; stroke-width: 0.8"/>
      </g>
     </g>
     <g id="text_15">
      <!-- 1.4 -->
      <g transform="translate(34.696875 70.219219)scale(0.1 -0.1)">
       <use xlink:href="#DejaVuSans-31"/>
       <use xlink:href="#DejaVuSans-2e" x="63.623047"/>
       <use xlink:href="#DejaVuSans-34" x="95.410156"/>
      </g>
     </g>
    </g>
   </g>
   <g id="line2d_29">
    <path d="M 79.774419 -1 
L 80.740271 20.952345 
L 81.959249 42.746161 
L 83.178227 60.138715 
L 84.397206 74.441529 
L 85.616184 86.477298 
L 86.835162 96.791661 
L 88.460466 108.50365 
L 90.085771 118.433087 
L 91.711075 126.996133 
L 93.33638 134.484731 
L 95.36801 142.651568 
L 97.39964 149.765831 
L 99.431271 156.041904 
L 101.462901 161.637839 
L 103.494532 166.673048 
L 105.932488 172.103378 
L 108.370445 176.980464 
L 110.808401 181.398038 
L 113.652684 186.067665 
L 116.496967 190.30109 
L 119.341249 194.168553 
L 122.591858 198.211026 
L 125.842467 201.913093 
L 129.499402 205.73497 
L 133.156336 209.249419 
L 137.219597 212.849542 
L 141.689184 216.496399 
L 146.158771 219.865762 
L 151.034684 223.273468 
L 156.316923 226.697328 
L 162.005489 230.12047 
L 168.10038 233.530317 
L 174.601597 236.917588 
L 181.915467 240.465922 
L 189.635663 243.954197 
L 197.762185 247.38124 
L 206.701359 250.9002 
L 216.046859 254.333863 
L 225.798685 257.680892 
L 235.956837 260.93818 
L 246.927641 264.218262 
L 258.304772 267.38108 
L 270.088228 270.419938 
L 282.278011 273.326948 
L 294.467794 276.007886 
L 307.063903 278.554084 
L 320.066337 280.956517 
L 333.475098 283.206948 
L 347.290185 285.298353 
L 361.511599 287.225317 
L 376.139338 288.98437 
L 391.579729 290.614311 
L 398.487273 291.273186 
L 398.487273 291.273186 
" clip-path="url(#pac2fef2aeb)" style="fill: none; stroke-dasharray: 1.5,2.475; stroke-dashoffset: 0; stroke: #1f77b4; stroke-opacity: 0.75; stroke-width: 1.5"/>
   </g>
   <g id="line2d_30">
    <path d="M 74.216875 -1 
L 74.239053 89.633103 
L 74.645379 103.674415 
L 75.051706 111.450728 
L 75.864358 120.817075 
L 76.67701 126.740541 
L 77.489662 131.04705 
L 78.302314 134.419333 
L 79.521293 138.402613 
L 80.740271 141.563025 
L 81.959249 144.184237 
L 83.584553 147.108925 
L 85.209858 149.579258 
L 87.241488 152.224303 
L 89.273119 154.519929 
L 91.711075 156.947814 
L 94.555358 159.460328 
L 97.805967 162.037358 
L 101.869227 164.959524 
L 106.745141 168.181867 
L 113.246358 172.193369 
L 122.998184 177.917189 
L 159.567532 199.172651 
L 183.947098 213.765835 
L 206.295032 227.059057 
L 220.110119 235.020863 
L 231.893576 241.557972 
L 242.458054 247.16893 
L 252.209881 252.106346 
L 261.555381 256.598249 
L 270.900881 260.839546 
L 279.840055 264.651475 
L 288.779229 268.217472 
L 297.718403 271.534622 
L 306.25125 274.469007 
L 315.190424 277.302951 
L 324.129598 279.89651 
L 333.068772 282.257291 
L 342.007946 284.394727 
L 351.353446 286.402363 
L 361.105272 288.264647 
L 371.263425 289.969688 
L 381.827903 291.509593 
L 392.798707 292.880629 
L 398.487273 293.508153 
L 398.487273 293.508153 
" clip-path="url(#pac2fef2aeb)" style="fill: none; stroke-dasharray: 1.5,2.475; stroke-dashoffset: 0; stroke: #ff7f0e; stroke-opacity: 0.75; stroke-width: 1.5"/>
   </g>
   <g id="line2d_31">
    <path d="M 73.832727 166.56384 
L 79.114966 166.678007 
L 84.397206 167.019919 
L 89.679445 167.587815 
L 94.961684 168.378775 
L 100.243923 169.388746 
L 105.526162 170.612578 
L 111.214728 172.162581 
L 116.903293 173.944353 
L 122.998184 176.098855 
L 129.093075 178.493421 
L 135.594293 181.294716 
L 142.501836 184.528222 
L 149.815706 188.212276 
L 157.535902 192.356206 
L 166.06875 197.194281 
L 175.820576 202.987033 
L 188.010358 210.503256 
L 233.112554 238.592382 
L 243.677033 244.763268 
L 253.428859 250.201718 
L 262.368033 254.937969 
L 270.900881 259.216429 
L 279.433729 263.244137 
L 287.56025 266.838576 
L 295.686772 270.193065 
L 303.813294 273.306555 
L 311.939816 276.180891 
L 320.066337 278.820472 
L 328.192859 281.231899 
L 336.725707 283.527619 
L 345.258555 285.592694 
L 354.197729 287.522864 
L 363.543229 289.302795 
L 372.888729 290.858418 
L 383.046881 292.317778 
L 393.61136 293.605879 
L 398.487273 294.128929 
L 398.487273 294.128929 
" clip-path="url(#pac2fef2aeb)" style="fill: none; stroke-dasharray: 5.55,2.4; stroke-dashoffset: 0; stroke: #2ca02c; stroke-opacity: 0.75; stroke-width: 1.5"/>
   </g>
   <g id="line2d_32">
    <path d="M 73.832727 299.267781 
L 74.239053 286.909095 
L 75.051706 277.863056 
L 75.864358 271.637714 
L 77.083336 264.328556 
L 78.302314 258.315706 
L 79.927619 251.484002 
L 81.552923 245.544729 
L 83.584553 238.987344 
L 85.616184 233.138968 
L 88.05414 226.832209 
L 90.492097 221.14152 
L 92.930053 215.956772 
L 95.774336 210.448996 
L 98.618619 205.446318 
L 101.462901 200.890246 
L 104.307184 196.737731 
L 107.151467 192.956002 
L 109.995749 189.519369 
L 112.840032 186.407141 
L 115.684314 183.602233 
L 118.528597 181.090191 
L 121.37288 178.858499 
L 124.217162 176.896082 
L 127.061445 175.192926 
L 129.905728 173.739807 
L 132.75001 172.528076 
L 135.594293 171.549499 
L 138.438575 170.796135 
L 141.282858 170.260243 
L 144.127141 169.934207 
L 146.971423 169.810484 
L 150.222032 169.907186 
L 153.472641 170.247124 
L 156.72325 170.819064 
L 159.973858 171.611724 
L 163.630793 172.753168 
L 167.287728 174.143364 
L 170.944663 175.765997 
L 175.007924 177.821634 
L 179.071184 180.121579 
L 183.540771 182.906981 
L 188.416684 186.217111 
L 193.698924 190.080069 
L 199.793815 194.835259 
L 206.701359 200.525817 
L 215.234206 207.858657 
L 234.737859 225.039934 
L 245.302337 234.132657 
L 253.428859 240.850578 
L 260.742728 246.624522 
L 267.650272 251.80253 
L 274.151489 256.408025 
L 280.652707 260.73804 
L 286.747598 264.538534 
L 292.842489 268.084368 
L 298.937381 271.375073 
L 305.032272 274.413256 
L 311.127163 277.204186 
L 317.222055 279.755378 
L 323.316946 282.076193 
L 329.818164 284.310024 
L 336.319381 286.308585 
L 343.226925 288.191618 
L 350.134468 289.84585 
L 357.448338 291.36973 
L 365.168533 292.749188 
L 373.295055 293.975451 
L 382.234229 295.091032 
L 391.579729 296.033884 
L 398.487273 296.605701 
L 398.487273 296.605701 
" clip-path="url(#pac2fef2aeb)" style="fill: none; stroke: #d62728; stroke-opacity: 0.75; stroke-width: 1.5; stroke-linecap: square"/>
   </g>
   <g id="line2d_33">
    <path d="M 73.832727 299.268 
L 86.02251 267.710112 
L 92.523727 251.47487 
L 98.212293 237.864329 
L 103.088206 226.76288 
L 107.557793 217.124705 
L 111.621054 208.863193 
L 115.684314 201.121315 
L 119.341249 194.628209 
L 122.998184 188.608674 
L 126.248793 183.671347 
L 129.499402 179.134869 
L 132.75001 175.008186 
L 135.594293 171.738775 
L 138.438575 168.791234 
L 141.282858 166.16723 
L 144.127141 163.867117 
L 146.971423 161.889965 
L 149.40938 160.450691 
L 151.847336 159.245029 
L 154.285293 158.270264 
L 156.72325 157.523078 
L 159.161206 156.999571 
L 161.599163 156.695294 
L 164.037119 156.605273 
L 166.475076 156.724045 
L 168.913032 157.045689 
L 171.350989 157.563862 
L 174.195271 158.407782 
L 177.039554 159.498721 
L 179.883837 160.824806 
L 183.134445 162.612371 
L 186.385054 164.671757 
L 189.635663 166.983262 
L 193.292598 169.860012 
L 197.355858 173.365458 
L 201.825445 177.550926 
L 206.701359 182.450029 
L 211.983598 188.07327 
L 218.484815 195.325151 
L 228.236641 206.587025 
L 243.270707 223.95032 
L 250.990902 232.502076 
L 257.49212 239.377631 
L 263.587011 245.495928 
L 269.275576 250.886916 
L 274.557815 255.597422 
L 279.840055 260.011979 
L 285.122294 264.124677 
L 289.998207 267.651908 
L 294.87412 270.922863 
L 299.750033 273.942177 
L 304.625946 276.716666 
L 309.908185 279.456131 
L 315.190424 281.931317 
L 320.472664 284.156647 
L 325.754903 286.147624 
L 331.443468 288.04823 
L 337.132033 289.716407 
L 343.226925 291.269194 
L 349.728142 292.685378 
L 356.635686 293.950128 
L 363.949555 295.055333 
L 371.669751 295.999518 
L 380.202599 296.821872 
L 389.954425 297.532429 
L 398.487273 297.995919 
L 398.487273 297.995919 
" clip-path="url(#pac2fef2aeb)" style="fill: none; stroke: #9467bd; stroke-opacity: 0.75; stroke-width: 1.5; stroke-linecap: square"/>
   </g>
   <g id="line2d_34">
    <path d="M 73.832727 299.268 
L 83.99088 299.16937 
L 88.05414 298.894847 
L 90.898423 298.504777 
L 93.33638 297.983757 
L 95.774336 297.242701 
L 97.805967 296.423054 
L 99.837597 295.390207 
L 101.869227 294.116818 
L 103.900858 292.576394 
L 105.932488 290.743836 
L 107.964119 288.595956 
L 109.995749 286.11198 
L 112.02738 283.274001 
L 114.05901 280.067409 
L 116.090641 276.481249 
L 118.528597 271.667294 
L 120.966554 266.292942 
L 123.40451 260.363408 
L 125.842467 253.89337 
L 128.686749 245.694639 
L 131.531032 236.847962 
L 134.781641 226.035789 
L 138.844902 211.661866 
L 144.127141 192.02595 
L 154.691619 152.499951 
L 158.75488 138.320538 
L 162.005489 127.773869 
L 164.849771 119.271675 
L 167.287728 112.604879 
L 169.725684 106.571173 
L 171.757315 102.062377 
L 173.788945 98.05169 
L 175.820576 94.559289 
L 177.44588 92.149455 
L 179.071184 90.087949 
L 180.696489 88.379323 
L 182.321793 87.02641 
L 183.947098 86.030344 
L 185.166076 85.517214 
L 186.385054 85.203714 
L 187.604032 85.088511 
L 188.823011 85.169784 
L 190.041989 85.44524 
L 191.260967 85.912127 
L 192.479945 86.567255 
L 194.10525 87.727287 
L 195.730554 89.205867 
L 197.355858 90.992189 
L 198.981163 93.074378 
L 201.012793 96.073526 
L 203.044424 99.487886 
L 205.48238 104.092628 
L 207.920337 109.20145 
L 210.764619 115.725929 
L 214.015228 123.817279 
L 217.672163 133.568799 
L 222.14175 146.154266 
L 229.861946 168.714453 
L 237.582141 191.044759 
L 242.458054 204.483182 
L 246.521315 215.08827 
L 250.17825 224.085887 
L 253.835185 232.513157 
L 257.085794 239.498319 
L 260.336402 245.993808 
L 263.587011 251.995402 
L 266.83762 257.506444 
L 270.088228 262.536767 
L 272.932511 266.555836 
L 275.776794 270.23147 
L 278.621076 273.578732 
L 281.465359 276.614263 
L 284.309642 279.355849 
L 287.153924 281.822016 
L 290.404533 284.327513 
L 293.655142 286.526309 
L 296.90575 288.446338 
L 300.156359 290.114727 
L 303.813294 291.723174 
L 307.470229 293.080841 
L 311.53349 294.334441 
L 315.59675 295.358601 
L 320.066337 296.263074 
L 324.942251 297.032038 
L 330.630816 297.701796 
L 337.132033 298.240471 
L 345.258555 298.67435 
L 355.416707 298.978879 
L 370.044446 299.171854 
L 396.455642 299.257123 
L 398.487273 299.258894 
L 398.487273 299.258894 
" clip-path="url(#pac2fef2aeb)" style="fill: none; stroke: #8c564b; stroke-opacity: 0.75; stroke-width: 1.5; stroke-linecap: square"/>
   </g>
   <g id="patch_3">
    <path d="M 57.6 307.584 
L 57.6 41.472 
" style="fill: none; stroke: #000000; stroke-width: 0.8; stroke-linejoin: miter; stroke-linecap: square"/>
   </g>
   <g id="patch_4">
    <path d="M 414.72 307.584 
L 414.72 41.472 
" style="fill: none; stroke: #000000; stroke-width: 0.8; stroke-linejoin: miter; stroke-linecap: square"/>
   </g>
   <g id="patch_5">
    <path d="M 57.6 307.584 
L 414.72 307.584 
" style="fill: none; stroke: #000000; stroke-width: 0.8; stroke-linejoin: miter; stroke-linecap: square"/>
   </g>
   <g id="patch_6">
    <path d="M 57.6 41.472 
L 414.72 41.472 
" style="fill: none; stroke: #000000; stroke-width: 0.8; stroke-linejoin: miter; stroke-linecap: square"/>
   </g>
   <g id="text_16">
    <!-- PDF of the Nakagami distribution (a=0, s=1) -->
    <g transform="translate(101.9175 35.472)scale(0.12 -0.12)">
     <defs>
      <path id="DejaVuSans-50" d="M 1259 4147 
L 1259 2394 
L 2053 2394 
Q 2494 2394 2734 2622 
Q 2975 2850 2975 3272 
Q 2975 3691 2734 3919 
Q 2494 4147 2053 4147 
L 1259 4147 
z
M 628 4666 
L 2053 4666 
Q 2838 4666 3239 4311 
Q 3641 3956 3641 3272 
Q 3641 2581 3239 2228 
Q 2838 1875 2053 1875 
L 1259 1875 
L 1259 0 
L 628 0 
L 628 4666 
z
" transform="scale(0.015625)"/>
      <path id="DejaVuSans-44" d="M 1259 4147 
L 1259 519 
L 2022 519 
Q 2988 519 3436 956 
Q 3884 1394 3884 2338 
Q 3884 3275 3436 3711 
Q 2988 4147 2022 4147 
L 1259 4147 
z
M 628 4666 
L 1925 4666 
Q 3281 4666 3915 4102 
Q 4550 3538 4550 2338 
Q 4550 1131 3912 565 
Q 3275 0 1925 0 
L 628 0 
L 628 4666 
z
" transform="scale(0.015625)"/>
      <path id="DejaVuSans-46" d="M 628 4666 
L 3309 4666 
L 3309 4134 
L 1259 4134 
L 1259 2759 
L 3109 2759 
L 3109 2228 
L 1259 2228 
L 1259 0 
L 628 0 
L 628 4666 
z
" transform="scale(0.015625)"/>
      <path id="DejaVuSans-20" transform="scale(0.015625)"/>
      <path id="DejaVuSans-6f" d="M 1959 3097 
Q 1497 3097 1228 2736 
Q 959 2375 959 1747 
Q 959 1119 1226 758 
Q 1494 397 1959 397 
Q 2419 397 2687 759 
Q 2956 1122 2956 1747 
Q 2956 2369 2687 2733 
Q 2419 3097 1959 3097 
z
M 1959 3584 
Q 2709 3584 3137 3096 
Q 3566 2609 3566 1747 
Q 3566 888 3137 398 
Q 2709 -91 1959 -91 
Q 1206 -91 779 398 
Q 353 888 353 1747 
Q 353 2609 779 3096 
Q 1206 3584 1959 3584 
z
" transform="scale(0.015625)"/>
      <path id="DejaVuSans-66" d="M 2375 4863 
L 2375 4384 
L 1825 4384 
Q 1516 4384 1395 4259 
Q 1275 4134 1275 3809 
L 1275 3500 
L 2222 3500 
L 2222 3053 
L 1275 3053 
L 1275 0 
L 697 0 
L 697 3053 
L 147 3053 
L 147 3500 
L 697 3500 
L 697 3744 
Q 697 4328 969 4595 
Q 1241 4863 1831 4863 
L 2375 4863 
z
" transform="scale(0.015625)"/>
      <path id="DejaVuSans-74" d="M 1172 4494 
L 1172 3500 
L 2356 3500 
L 2356 3053 
L 1172 3053 
L 1172 1153 
Q 1172 725 1289 603 
Q 1406 481 1766 481 
L 2356 481 
L 2356 0 
L 1766 0 
Q 1100 0 847 248 
Q 594 497 594 1153 
L 594 3053 
L 172 3053 
L 172 3500 
L 594 3500 
L 594 4494 
L 1172 4494 
z
" transform="scale(0.015625)"/>
      <path id="DejaVuSans-68" d="M 3513 2113 
L 3513 0 
L 2938 0 
L 2938 2094 
Q 2938 2591 2744 2837 
Q 2550 3084 2163 3084 
Q 1697 3084 1428 2787 
Q 1159 2491 1159 1978 
L 1159 0 
L 581 0 
L 581 4863 
L 1159 4863 
L 1159 2956 
Q 1366 3272 1645 3428 
Q 1925 3584 2291 3584 
Q 2894 3584 3203 3211 
Q 3513 2838 3513 2113 
z
" transform="scale(0.015625)"/>
      <path id="DejaVuSans-65" d="M 3597 1894 
L 3597 1613 
L 953 1613 
Q 991 1019 1311 708 
Q 1631 397 2203 397 
Q 2534 397 2845 478 
Q 3156 559 3463 722 
L 3463 178 
Q 3153 47 2828 -22 
Q 2503 -91 2169 -91 
Q 1331 -91 842 396 
Q 353 884 353 1716 
Q 353 2575 817 3079 
Q 1281 3584 2069 3584 
Q 2775 3584 3186 3129 
Q 3597 2675 3597 1894 
z
M 3022 2063 
Q 3016 2534 2758 2815 
Q 2500 3097 2075 3097 
Q 1594 3097 1305 2825 
Q 1016 2553 972 2059 
L 3022 2063 
z
" transform="scale(0.015625)"/>
      <path id="DejaVuSans-4e" d="M 628 4666 
L 1478 4666 
L 3547 763 
L 3547 4666 
L 4159 4666 
L 4159 0 
L 3309 0 
L 1241 3903 
L 1241 0 
L 628 0 
L 628 4666 
z
" transform="scale(0.015625)"/>
      <path id="DejaVuSans-61" d="M 2194 1759 
Q 1497 1759 1228 1600 
Q 959 1441 959 1056 
Q 959 750 1161 570 
Q 1363 391 1709 391 
Q 2188 391 2477 730 
Q 2766 1069 2766 1631 
L 2766 1759 
L 2194 1759 
z
M 3341 1997 
L 3341 0 
L 2766 0 
L 2766 531 
Q 2569 213 2275 61 
Q 1981 -91 1556 -91 
Q 1019 -91 701 211 
Q 384 513 384 1019 
Q 384 1609 779 1909 
Q 1175 2209 1959 2209 
L 2766 2209 
L 2766 2266 
Q 2766 2663 2505 2880 
Q 2244 3097 1772 3097 
Q 1472 3097 1187 3025 
Q 903 2953 641 2809 
L 641 3341 
Q 956 3463 1253 3523 
Q 1550 3584 1831 3584 
Q 2591 3584 2966 3190 
Q 3341 2797 3341 1997 
z
" transform="scale(0.015625)"/>
      <path id="DejaVuSans-6b" d="M 581 4863 
L 1159 4863 
L 1159 1991 
L 2875 3500 
L 3609 3500 
L 1753 1863 
L 3688 0 
L 2938 0 
L 1159 1709 
L 1159 0 
L 581 0 
L 581 4863 
z
" transform="scale(0.015625)"/>
      <path id="DejaVuSans-67" d="M 2906 1791 
Q 2906 2416 2648 2759 
Q 2391 3103 1925 3103 
Q 1463 3103 1205 2759 
Q 947 2416 947 1791 
Q 947 1169 1205 825 
Q 1463 481 1925 481 
Q 2391 481 2648 825 
Q 2906 1169 2906 1791 
z
M 3481 434 
Q 3481 -459 3084 -895 
Q 2688 -1331 1869 -1331 
Q 1566 -1331 1297 -1286 
Q 1028 -1241 775 -1147 
L 775 -588 
Q 1028 -725 1275 -790 
Q 1522 -856 1778 -856 
Q 2344 -856 2625 -561 
Q 2906 -266 2906 331 
L 2906 616 
Q 2728 306 2450 153 
Q 2172 0 1784 0 
Q 1141 0 747 490 
Q 353 981 353 1791 
Q 353 2603 747 3093 
Q 1141 3584 1784 3584 
Q 2172 3584 2450 3431 
Q 2728 3278 2906 2969 
L 2906 3500 
L 3481 3500 
L 3481 434 
z
" transform="scale(0.015625)"/>
      <path id="DejaVuSans-6d" d="M 3328 2828 
Q 3544 3216 3844 3400 
Q 4144 3584 4550 3584 
Q 5097 3584 5394 3201 
Q 5691 2819 5691 2113 
L 5691 0 
L 5113 0 
L 5113 2094 
Q 5113 2597 4934 2840 
Q 4756 3084 4391 3084 
Q 3944 3084 3684 2787 
Q 3425 2491 3425 1978 
L 3425 0 
L 2847 0 
L 2847 2094 
Q 2847 2600 2669 2842 
Q 2491 3084 2119 3084 
Q 1678 3084 1418 2786 
Q 1159 2488 1159 1978 
L 1159 0 
L 581 0 
L 581 3500 
L 1159 3500 
L 1159 2956 
Q 1356 3278 1631 3431 
Q 1906 3584 2284 3584 
Q 2666 3584 2933 3390 
Q 3200 3197 3328 2828 
z
" transform="scale(0.015625)"/>
      <path id="DejaVuSans-69" d="M 603 3500 
L 1178 3500 
L 1178 0 
L 603 0 
L 603 3500 
z
M 603 4863 
L 1178 4863 
L 1178 4134 
L 603 4134 
L 603 4863 
z
" transform="scale(0.015625)"/>
      <path id="DejaVuSans-64" d="M 2906 2969 
L 2906 4863 
L 3481 4863 
L 3481 0 
L 2906 0 
L 2906 525 
Q 2725 213 2448 61 
Q 2172 -91 1784 -91 
Q 1150 -91 751 415 
Q 353 922 353 1747 
Q 353 2572 751 3078 
Q 1150 3584 1784 3584 
Q 2172 3584 2448 3432 
Q 2725 3281 2906 2969 
z
M 947 1747 
Q 947 1113 1208 752 
Q 1469 391 1925 391 
Q 2381 391 2643 752 
Q 2906 1113 2906 1747 
Q 2906 2381 2643 2742 
Q 2381 3103 1925 3103 
Q 1469 3103 1208 2742 
Q 947 2381 947 1747 
z
" transform="scale(0.015625)"/>
      <path id="DejaVuSans-73" d="M 2834 3397 
L 2834 2853 
Q 2591 2978 2328 3040 
Q 2066 3103 1784 3103 
Q 1356 3103 1142 2972 
Q 928 2841 928 2578 
Q 928 2378 1081 2264 
Q 1234 2150 1697 2047 
L 1894 2003 
Q 2506 1872 2764 1633 
Q 3022 1394 3022 966 
Q 3022 478 2636 193 
Q 2250 -91 1575 -91 
Q 1294 -91 989 -36 
Q 684 19 347 128 
L 347 722 
Q 666 556 975 473 
Q 1284 391 1588 391 
Q 1994 391 2212 530 
Q 2431 669 2431 922 
Q 2431 1156 2273 1281 
Q 2116 1406 1581 1522 
L 1381 1569 
Q 847 1681 609 1914 
Q 372 2147 372 2553 
Q 372 3047 722 3315 
Q 1072 3584 1716 3584 
Q 2034 3584 2315 3537 
Q 2597 3491 2834 3397 
z
" transform="scale(0.015625)"/>
      <path id="DejaVuSans-72" d="M 2631 2963 
Q 2534 3019 2420 3045 
Q 2306 3072 2169 3072 
Q 1681 3072 1420 2755 
Q 1159 2438 1159 1844 
L 1159 0 
L 581 0 
L 581 3500 
L 1159 3500 
L 1159 2956 
Q 1341 3275 1631 3429 
Q 1922 3584 2338 3584 
Q 2397 3584 2469 3576 
Q 2541 3569 2628 3553 
L 2631 2963 
z
" transform="scale(0.015625)"/>
      <path id="DejaVuSans-62" d="M 3116 1747 
Q 3116 2381 2855 2742 
Q 2594 3103 2138 3103 
Q 1681 3103 1420 2742 
Q 1159 2381 1159 1747 
Q 1159 1113 1420 752 
Q 1681 391 2138 391 
Q 2594 391 2855 752 
Q 3116 1113 3116 1747 
z
M 1159 2969 
Q 1341 3281 1617 3432 
Q 1894 3584 2278 3584 
Q 2916 3584 3314 3078 
Q 3713 2572 3713 1747 
Q 3713 922 3314 415 
Q 2916 -91 2278 -91 
Q 1894 -91 1617 61 
Q 1341 213 1159 525 
L 1159 0 
L 581 0 
L 581 4863 
L 1159 4863 
L 1159 2969 
z
" transform="scale(0.015625)"/>
      <path id="DejaVuSans-75" d="M 544 1381 
L 544 3500 
L 1119 3500 
L 1119 1403 
Q 1119 906 1312 657 
Q 1506 409 1894 409 
Q 2359 409 2629 706 
Q 2900 1003 2900 1516 
L 2900 3500 
L 3475 3500 
L 3475 0 
L 2900 0 
L 2900 538 
Q 2691 219 2414 64 
Q 2138 -91 1772 -91 
Q 1169 -91 856 284 
Q 544 659 544 1381 
z
M 1991 3584 
L 1991 3584 
z
" transform="scale(0.015625)"/>
      <path id="DejaVuSans-6e" d="M 3513 2113 
L 3513 0 
L 2938 0 
L 2938 2094 
Q 2938 2591 2744 2837 
Q 2550 3084 2163 3084 
Q 1697 3084 1428 2787 
Q 1159 2491 1159 1978 
L 1159 0 
L 581 0 
L 581 3500 
L 1159 3500 
L 1159 2956 
Q 1366 3272 1645 3428 
Q 1925 3584 2291 3584 
Q 2894 3584 3203 3211 
Q 3513 2838 3513 2113 
z
" transform="scale(0.015625)"/>
      <path id="DejaVuSans-28" d="M 1984 4856 
Q 1566 4138 1362 3434 
Q 1159 2731 1159 2009 
Q 1159 1288 1364 580 
Q 1569 -128 1984 -844 
L 1484 -844 
Q 1016 -109 783 600 
Q 550 1309 550 2009 
Q 550 2706 781 3412 
Q 1013 4119 1484 4856 
L 1984 4856 
z
" transform="scale(0.015625)"/>
      <path id="DejaVuSans-3d" d="M 678 2906 
L 4684 2906 
L 4684 2381 
L 678 2381 
L 678 2906 
z
M 678 1631 
L 4684 1631 
L 4684 1100 
L 678 1100 
L 678 1631 
z
" transform="scale(0.015625)"/>
      <path id="DejaVuSans-2c" d="M 750 794 
L 1409 794 
L 1409 256 
L 897 -744 
L 494 -744 
L 750 256 
L 750 794 
z
" transform="scale(0.015625)"/>
      <path id="DejaVuSans-29" d="M 513 4856 
L 1013 4856 
Q 1481 4119 1714 3412 
Q 1947 2706 1947 2009 
Q 1947 1309 1714 600 
Q 1481 -109 1013 -844 
L 513 -844 
Q 928 -128 1133 580 
Q 1338 1288 1338 2009 
Q 1338 2731 1133 3434 
Q 928 4138 513 4856 
z
" transform="scale(0.015625)"/>
     </defs>
     <use xlink:href="#DejaVuSans-50"/>
     <use xlink:href="#DejaVuSans-44" x="60.302734"/>
     <use xlink:href="#DejaVuSans-46" x="137.304688"/>
     <use xlink:href="#DejaVuSans-20" x="194.824219"/>
     <use xlink:href="#DejaVuSans-6f" x="226.611328"/>
     <use xlink:href="#DejaVuSans-66" x="287.792969"/>
     <use xlink:href="#DejaVuSans-20" x="322.998047"/>
     <use xlink:href="#DejaVuSans-74" x="354.785156"/>
     <use xlink:href="#DejaVuSans-68" x="393.994141"/>
     <use xlink:href="#DejaVuSans-65" x="457.373047"/>
     <use xlink:href="#DejaVuSans-20" x="518.896484"/>
     <use xlink:href="#DejaVuSans-4e" x="550.683594"/>
     <use xlink:href="#DejaVuSans-61" x="625.488281"/>
     <use xlink:href="#DejaVuSans-6b" x="686.767578"/>
     <use xlink:href="#DejaVuSans-61" x="742.927734"/>
     <use xlink:href="#DejaVuSans-67" x="804.207031"/>
     <use xlink:href="#DejaVuSans-61" x="867.683594"/>
     <use xlink:href="#DejaVuSans-6d" x="928.962891"/>
     <use xlink:href="#DejaVuSans-69" x="1026.375"/>
     <use xlink:href="#DejaVuSans-20" x="1054.158203"/>
     <use xlink:href="#DejaVuSans-64" x="1085.945312"/>
     <use xlink:href="#DejaVuSans-69" x="1149.421875"/>
     <use xlink:href="#DejaVuSans-73" x="1177.205078"/>
     <use xlink:href="#DejaVuSans-74" x="1229.304688"/>
     <use xlink:href="#DejaVuSans-72" x="1268.513672"/>
     <use xlink:href="#DejaVuSans-69" x="1309.626953"/>
     <use xlink:href="#DejaVuSans-62" x="1337.410156"/>
     <use xlink:href="#DejaVuSans-75" x="1400.886719"/>
     <use xlink:href="#DejaVuSans-74" x="1464.265625"/>
     <use xlink:href="#DejaVuSans-69" x="1503.474609"/>
     <use xlink:href="#DejaVuSans-6f" x="1531.257812"/>
     <use xlink:href="#DejaVuSans-6e" x="1592.439453"/>
     <use xlink:href="#DejaVuSans-20" x="1655.818359"/>
     <use xlink:href="#DejaVuSans-28" x="1687.605469"/>
     <use xlink:href="#DejaVuSans-61" x="1726.619141"/>
     <use xlink:href="#DejaVuSans-3d" x="1787.898438"/>
     <use xlink:href="#DejaVuSans-30" x="1871.6875"/>
     <use xlink:href="#DejaVuSans-2c" x="1935.310547"/>
     <use xlink:href="#DejaVuSans-20" x="1967.097656"/>
     <use xlink:href="#DejaVuSans-73" x="1998.884766"/>
     <use xlink:href="#DejaVuSans-3d" x="2050.984375"/>
     <use xlink:href="#DejaVuSans-31" x="2134.773438"/>
     <use xlink:href="#DejaVuSans-29" x="2198.396484"/>
    </g>
   </g>
   <g id="legend_1">
    <g id="patch_7">
     <path d="M 341.48875 139.54075 
L 409.72 139.54075 
Q 411.72 139.54075 411.72 137.54075 
L 411.72 50.472 
Q 411.72 48.472 409.72 48.472 
L 341.48875 48.472 
Q 339.48875 48.472 339.48875 50.472 
L 339.48875 137.54075 
Q 339.48875 139.54075 341.48875 139.54075 
z
" style="fill: #4c4c4c; opacity: 0.5; stroke: #4c4c4c; stroke-linejoin: miter"/>
    </g>
    <g id="patch_8">
     <path d="M 339.48875 137.54075 
L 407.72 137.54075 
Q 409.72 137.54075 409.72 135.54075 
L 409.72 48.472 
Q 409.72 46.472 407.72 46.472 
L 339.48875 46.472 
Q 337.48875 46.472 337.48875 48.472 
L 337.48875 135.54075 
Q 337.48875 137.54075 339.48875 137.54075 
z
" style="fill: #ffffff; stroke: #cccccc; stroke-linejoin: miter"/>
    </g>
    <g id="line2d_35">
     <path d="M 341.48875 54.570438 
L 351.48875 54.570438 
L 361.48875 54.570438 
" style="fill: none; stroke-dasharray: 1.5,2.475; stroke-dashoffset: 0; stroke: #1f77b4; stroke-opacity: 0.75; stroke-width: 1.5"/>
    </g>
    <g id="text_17">
     <!-- ν=0.25 -->
     <g transform="translate(369.48875 58.070438)scale(0.1 -0.1)">
      <defs>
       <path id="DejaVuSans-3bd" d="M 1300 0 
L 231 3500 
L 850 3500 
L 1753 563 
Q 2128 950 2441 1488 
Q 2678 1891 2691 2241 
Q 2697 2406 2622 2719 
Q 2534 3091 2203 3500 
L 2784 3500 
L 2784 3500 
Q 3000 3222 3144 2834 
Q 3275 2478 3275 2234 
Q 3275 1622 2850 1075 
Q 2297 363 1913 0 
L 1300 0 
z
" transform="scale(0.015625)"/>
      </defs>
      <use xlink:href="#DejaVuSans-3bd"/>
      <use xlink:href="#DejaVuSans-3d" x="55.859375"/>
      <use xlink:href="#DejaVuSans-30" x="139.648438"/>
      <use xlink:href="#DejaVuSans-2e" x="203.271484"/>
      <use xlink:href="#DejaVuSans-32" x="235.058594"/>
      <use xlink:href="#DejaVuSans-35" x="298.681641"/>
     </g>
    </g>
    <g id="line2d_36">
     <path d="M 341.48875 69.248563 
L 351.48875 69.248563 
L 361.48875 69.248563 
" style="fill: none; stroke-dasharray: 1.5,2.475; stroke-dashoffset: 0; stroke: #ff7f0e; stroke-opacity: 0.75; stroke-width: 1.5"/>
    </g>
    <g id="text_18">
     <!-- ν=0.45 -->
     <g transform="translate(369.48875 72.748563)scale(0.1 -0.1)">
      <use xlink:href="#DejaVuSans-3bd"/>
      <use xlink:href="#DejaVuSans-3d" x="55.859375"/>
      <use xlink:href="#DejaVuSans-30" x="139.648438"/>
      <use xlink:href="#DejaVuSans-2e" x="203.271484"/>
      <use xlink:href="#DejaVuSans-34" x="235.058594"/>
      <use xlink:href="#DejaVuSans-35" x="298.681641"/>
     </g>
    </g>
    <g id="line2d_37">
     <path d="M 341.48875 83.926688 
L 351.48875 83.926688 
L 361.48875 83.926688 
" style="fill: none; stroke-dasharray: 5.55,2.4; stroke-dashoffset: 0; stroke: #2ca02c; stroke-opacity: 0.75; stroke-width: 1.5"/>
    </g>
    <g id="text_19">
     <!-- ν=0.5 -->
     <g transform="translate(369.48875 87.426688)scale(0.1 -0.1)">
      <use xlink:href="#DejaVuSans-3bd"/>
      <use xlink:href="#DejaVuSans-3d" x="55.859375"/>
      <use xlink:href="#DejaVuSans-30" x="139.648438"/>
      <use xlink:href="#DejaVuSans-2e" x="203.271484"/>
      <use xlink:href="#DejaVuSans-35" x="235.058594"/>
     </g>
    </g>
    <g id="line2d_38">
     <path d="M 341.48875 98.604813 
L 351.48875 98.604813 
L 361.48875 98.604813 
" style="fill: none; stroke: #d62728; stroke-opacity: 0.75; stroke-width: 1.5; stroke-linecap: square"/>
    </g>
    <g id="text_20">
     <!-- ν=0.75 -->
     <g transform="translate(369.48875 102.104813)scale(0.1 -0.1)">
      <defs>
       <path id="DejaVuSans-37" d="M 525 4666 
L 3525 4666 
L 3525 4397 
L 1831 0 
L 1172 0 
L 2766 4134 
L 525 4134 
L 525 4666 
z
" transform="scale(0.015625)"/>
      </defs>
      <use xlink:href="#DejaVuSans-3bd"/>
      <use xlink:href="#DejaVuSans-3d" x="55.859375"/>
      <use xlink:href="#DejaVuSans-30" x="139.648438"/>
      <use xlink:href="#DejaVuSans-2e" x="203.271484"/>
      <use xlink:href="#DejaVuSans-37" x="235.058594"/>
      <use xlink:href="#DejaVuSans-35" x="298.681641"/>
     </g>
    </g>
    <g id="line2d_39">
     <path d="M 341.48875 113.282938 
L 351.48875 113.282938 
L 361.48875 113.282938 
" style="fill: none; stroke: #9467bd; stroke-opacity: 0.75; stroke-width: 1.5; stroke-linecap: square"/>
    </g>
    <g id="text_21">
     <!-- ν=1.0 -->
     <g transform="translate(369.48875 116.782938)scale(0.1 -0.1)">
      <use xlink:href="#DejaVuSans-3bd"/>
      <use xlink:href="#DejaVuSans-3d" x="55.859375"/>
      <use xlink:href="#DejaVuSans-31" x="139.648438"/>
      <use xlink:href="#DejaVuSans-2e" x="203.271484"/>
      <use xlink:href="#DejaVuSans-30" x="235.058594"/>
     </g>
    </g>
    <g id="line2d_40">
     <path d="M 341.48875 127.961063 
L 351.48875 127.961063 
L 361.48875 127.961063 
" style="fill: none; stroke: #8c564b; stroke-opacity: 0.75; stroke-width: 1.5; stroke-linecap: square"/>
    </g>
    <g id="text_22">
     <!-- ν=2.5 -->
     <g transform="translate(369.48875 131.461063)scale(0.1 -0.1)">
      <use xlink:href="#DejaVuSans-3bd"/>
      <use xlink:href="#DejaVuSans-3d" x="55.859375"/>
      <use xlink:href="#DejaVuSans-32" x="139.648438"/>
      <use xlink:href="#DejaVuSans-2e" x="203.271484"/>
      <use xlink:href="#DejaVuSans-35" x="235.058594"/>
     </g>
    </g>
   </g>
  </g>
 </g>
 <defs>
  <clipPath id="pac2fef2aeb">
   <rect x="57.6" y="41.472" width="357.12" height="266.112"/>
  </clipPath>
 </defs>
</svg>
